<svg width="20" height="20" viewBox="0 0 20 20" fill="none" xmlns="http://www.w3.org/2000/svg">
<g clip-path="url(#clip0_79_473)">
<path d="M3.76688 4.94481L1.16104 2.33981L2.34021 1.16064L18.8394 17.6606L17.6602 18.839L14.9019 16.0806C13.4362 17.0103 11.7358 17.5026 10.0002 17.4998C5.50688 17.4998 1.76854 14.2665 0.984375 9.99981C1.34273 8.05874 2.31823 6.28556 3.76688 4.94481ZM12.2977 13.4765L11.0777 12.2565C10.6111 12.4797 10.0867 12.5528 9.57682 12.4655C9.06695 12.3782 8.59671 12.1349 8.23093 11.7691C7.86516 11.4033 7.62185 10.9331 7.53456 10.4232C7.44726 9.91333 7.52028 9.38894 7.74354 8.92231L6.52354 7.70231C5.99331 8.50355 5.75627 9.46342 5.85257 10.4194C5.94887 11.3753 6.37258 12.2687 7.05197 12.948C7.73136 13.6274 8.62467 14.0512 9.58063 14.1475C10.5366 14.2438 11.4965 14.0067 12.2977 13.4765ZM6.64521 3.13314C7.68438 2.72481 8.81688 2.49981 10.0002 2.49981C14.4935 2.49981 18.2319 5.73314 19.016 9.99981C18.7607 11.3879 18.1868 12.6978 17.3394 13.8265L14.1227 10.6098C14.2183 9.96616 14.1617 9.30907 13.9576 8.69119C13.7536 8.07331 13.4076 7.51182 12.9475 7.0517C12.4874 6.59158 11.9259 6.24562 11.308 6.04154C10.6901 5.83746 10.033 5.78093 9.38938 5.87648L6.64521 3.13314Z" fill="#E9EBEC"/>
</g>
<defs>
<clipPath id="clip0_79_473">
<rect width="20" height="20" fill="white"/>
</clipPath>
</defs>
</svg>
