<svg width="96" height="96" viewBox="0 0 96 96" fill="none" xmlns="http://www.w3.org/2000/svg">
<rect width="96" height="96" rx="48" fill="#0E1618"/>
<g clip-path="url(#clip0_113_750)">
<path d="M46.585 42.4615C47.366 43.2426 48.6323 43.2426 49.4134 42.4615L61.0225 30.8524C61.8035 30.0714 63.0698 30.0714 63.8509 30.8524L65.1466 32.1482C65.9277 32.9292 65.9277 34.1956 65.1466 34.9766L53.5375 46.5857C52.7565 47.3667 52.7565 48.6331 53.5375 49.4141L65.1466 61.0232C65.9277 61.8042 65.9277 63.0706 65.1466 63.8516L63.8509 65.1474C63.0698 65.9284 61.8035 65.9284 61.0225 65.1474L49.4134 53.5383C48.6323 52.7572 47.366 52.7572 46.585 53.5383L34.9759 65.1474C34.1948 65.9284 32.9285 65.9284 32.1475 65.1474L30.8517 63.8516C30.0707 63.0706 30.0707 61.8042 30.8517 61.0232L42.4608 49.4141C43.2418 48.6331 43.2418 47.3667 42.4608 46.5857L30.8517 34.9766C30.0707 34.1956 30.0707 32.9292 30.8517 32.1482L32.1475 30.8524C32.9285 30.0714 34.1948 30.0714 34.9759 30.8524L46.585 42.4615Z" fill="#F60303"/>
</g>
<defs>
<clipPath id="clip0_113_750">
<rect width="70" height="70" fill="white" transform="translate(13 13)"/>
</clipPath>
</defs>
</svg>
