<svg width="49" height="48" viewBox="0 0 49 48" fill="none" xmlns="http://www.w3.org/2000/svg">
<g clip-path="url(#clip0_62_178)">
<path d="M12.354 24.994C16.48 24.108 15.918 19.176 15.794 18.098C15.592 16.438 13.638 13.534 10.984 13.764C7.644 14.064 7.158 18.886 7.158 18.886C6.706 21.116 8.238 25.88 12.354 24.994ZM20.01 16.726C22.29 16.726 24.13 14.102 24.13 10.86C24.13 7.62 22.29 5 20.01 5C17.736 5 15.89 7.62 15.89 10.86C15.89 14.102 17.736 16.726 20.01 16.726ZM29.826 17.112C32.87 17.508 34.828 14.258 35.218 11.794C35.616 9.334 33.65 6.478 31.494 5.986C29.334 5.49 26.636 8.952 26.39 11.206C26.096 13.966 26.784 16.722 29.826 17.112ZM29.826 24.008C26.096 18.198 20.8 20.562 19.026 23.518C17.264 26.472 14.514 28.338 14.124 28.834C13.728 29.322 8.432 32.18 9.608 37.402C10.782 42.62 14.912 42.522 14.912 42.522C14.912 42.522 17.954 42.822 21.484 42.03C25.016 41.248 28.056 42.226 28.056 42.226C28.056 42.226 36.306 44.986 38.562 39.67C40.818 34.35 37.288 31.594 37.288 31.594C37.288 31.594 32.576 27.948 29.824 24.008H29.826ZM41.898 21.25C41.898 20.07 40.918 16.522 37.288 16.522C33.65 16.522 33.164 19.872 33.164 22.24C33.164 24.5 33.354 27.654 37.872 27.554C42.392 27.454 41.898 22.434 41.898 21.25Z" fill="#E9EBEC"/>
</g>
<defs>
<clipPath id="clip0_62_178">
<rect width="48" height="48" fill="white" transform="translate(0.5)"/>
</clipPath>
</defs>
</svg>
