<svg width="49" height="48" viewBox="0 0 49 48" fill="none" xmlns="http://www.w3.org/2000/svg">
<g clip-path="url(#clip0_62_275)">
<path d="M39.252 24.832L18.054 38.964C17.9034 39.0642 17.7285 39.1217 17.5478 39.1303C17.3671 39.139 17.1875 39.0985 17.028 39.0131C16.8685 38.9277 16.7352 38.8007 16.6422 38.6455C16.5492 38.4904 16.5001 38.3129 16.5 38.132V9.868C16.5001 9.68711 16.5492 9.50964 16.6422 9.35449C16.7352 9.19933 16.8685 9.0723 17.028 8.98692C17.1875 8.90154 17.3671 8.86101 17.5478 8.86966C17.7285 8.8783 17.9034 8.93579 18.054 9.036L39.252 23.168C39.389 23.2593 39.5013 23.383 39.5789 23.5282C39.6566 23.6733 39.6972 23.8354 39.6972 24C39.6972 24.1646 39.6566 24.3267 39.5789 24.4718C39.5013 24.617 39.389 24.7407 39.252 24.832Z" fill="#E9EBEC"/>
</g>
<defs>
<clipPath id="clip0_62_275">
<rect width="48" height="48" fill="white" transform="translate(0.5)"/>
</clipPath>
</defs>
</svg>
