<svg width="50" height="50" viewBox="0 0 50 50" fill="none" xmlns="http://www.w3.org/2000/svg">
<rect x="1.5" y="1.5" width="47" height="47" rx="8.5" fill="#131F23"/>
<rect x="1.5" y="1.5" width="47" height="47" rx="8.5" stroke="#2F454C" stroke-width="3"/>
<path d="M33.5714 23.125H27.1429V17.5C27.1429 16.8098 26.5031 16.25 25.7143 16.25H24.2857C23.4969 16.25 22.8571 16.8098 22.8571 17.5V23.125H16.4286C15.6397 23.125 15 23.6848 15 24.375V25.625C15 26.3152 15.6397 26.875 16.4286 26.875H22.8571V32.5C22.8571 33.1902 23.4969 33.75 24.2857 33.75H25.7143C26.5031 33.75 27.1429 33.1902 27.1429 32.5V26.875H33.5714C34.3603 26.875 35 26.3152 35 25.625V24.375C35 23.6848 34.3603 23.125 33.5714 23.125Z" fill="#2F454C"/>
</svg>
