<svg width="41" height="40" viewBox="0 0 41 40" fill="none" xmlns="http://www.w3.org/2000/svg">
<g clip-path="url(#clip0_62_396)">
<path d="M38.8333 5H31.6111V1.875C31.6111 0.835938 30.8681 0 29.9444 0H11.0556C10.1319 0 9.38889 0.835938 9.38889 1.875V5H2.16667C1.24306 5 0.5 5.83594 0.5 6.875V11.25C0.5 14.0391 2.0625 16.9062 4.79861 19.1172C6.98611 20.8906 9.64583 22.0156 12.4375 22.375C14.6181 26.4453 17.1667 28.125 17.1667 28.125V33.75H13.8333C11.3819 33.75 9.38889 35.3672 9.38889 38.125V39.0625C9.38889 39.5781 9.76389 40 10.2222 40H30.7778C31.2361 40 31.6111 39.5781 31.6111 39.0625V38.125C31.6111 35.3672 29.6181 33.75 27.1667 33.75H23.8333V28.125C23.8333 28.125 26.3819 26.4453 28.5625 22.375C31.3611 22.0156 34.0208 20.8906 36.2014 19.1172C38.9306 16.9062 40.5 14.0391 40.5 11.25V6.875C40.5 5.83594 39.7569 5 38.8333 5ZM7.39583 15.0625C5.70139 13.6875 4.94444 12.1562 4.94444 11.25V10H9.40278C9.47222 12.5469 9.80556 14.7812 10.2917 16.7344C9.24306 16.3281 8.26389 15.7656 7.39583 15.0625ZM36.0556 11.25C36.0556 12.5078 34.8264 14.0703 33.6042 15.0625C32.7361 15.7656 31.75 16.3281 30.7014 16.7344C31.1875 14.7812 31.5208 12.5469 31.5903 10H36.0556V11.25Z" fill="#E9EBEC"/>
</g>
<defs>
<clipPath id="clip0_62_396">
<rect width="40" height="40" fill="white" transform="translate(0.5)"/>
</clipPath>
</defs>
</svg>
